<svg xmlns="http://www.w3.org/2000/svg" viewBox="0 0 465.64 228.25"><defs><style>.cls-1{fill:#444;}.cls-2{fill:#f6de04;}.cls-3{fill:#232322;}.cls-4{fill:#303030;}.cls-5{fill:#121212;}.cls-6{fill:#232323;}.cls-7{fill:#151515;}.cls-8{fill:#242424;}.cls-9{fill:#2a2a2a;}.cls-10{fill:#050505;}</style></defs><title>Asset 2</title><g id="Layer_2" data-name="Layer 2"><g id="Layer_1-2" data-name="Layer 1"><rect class="cls-1" x="20.49" width="418.37" height="228.25"/><rect class="cls-2" y="52.27" width="465.64" height="124.15"/><path class="cls-3" d="M149.72,160.47c-1.78.05-3-1.15-3-5.44V133.79c0-15.17-5.55-19.77-22-19.77-1.2,0-2.35,0-3.45.08,4.18,0,6,4.83,6,18.12v3.07l.42,22.88c1.25,5.13,6,7.74,14.44,7.74,9,0,12.87-3.56,13.39-16.12C155.47,149.79,153.78,160.34,149.72,160.47Zm-28.46-46.38c-.18,0,0,.42,0,0Z"/><path class="cls-3" d="M121.93,114.07s-17.42-.2-18.77,9.74,6,12.26,10,11.68a6.53,6.53,0,0,0,5.57-8.08C117.89,123.41,115.64,116.06,121.93,114.07Z"/><path class="cls-3" d="M127.18,140.27s-19.78-.89-24.19,4.92-3.5,18.26,7,20.19,9.84-9.33,9.62-13.55S119.09,141.57,127.18,140.27Z"/><path class="cls-3" d="M222.32,138.75c.61-.15,1.55-2.14,1.82-2.68a7.16,7.16,0,0,0,.8-2.93c.16-4.68-4.52-8.17-2.62-13.1a6.74,6.74,0,0,1,4.61-4.11c6.39-1.51,8.5,5.51,7.42,10.32a16.82,16.82,0,0,1-11.1,12.24C222.94,138.59,222.63,138.68,222.32,138.75Z"/><path class="cls-3" d="M220.16,156.69c-2.79-10.27-7.11-26-9.47-34.54a8.2,8.2,0,0,0-7.93-6H186.91a9.09,9.09,0,0,1,4.85,6.06l3.09,11.63,9.1,32.11h25.57A13.05,13.05,0,0,1,220.16,156.69Z"/><path class="cls-3" d="M186.65,156.55l-1.51-5.68v0l-7.73-28.67a8.22,8.22,0,0,0-7.94-6.08H150.81l.77.3a9.13,9.13,0,0,1,5.26,5.64L171,165.9h25.26l-.14,0A13,13,0,0,1,186.65,156.55Z"/><path class="cls-3" d="M264.61,159.8V122.57a6.46,6.46,0,0,0-6.46-6.46H239.4l1,.34a6.82,6.82,0,0,1,4.69,6.48v36.14a6.82,6.82,0,0,1-4.69,6.48l-1,.34h29A6.78,6.78,0,0,1,264.61,159.8Zm64.94,5.72a6.77,6.77,0,0,1-4.69-6.43V132.54c0-12.66-6.27-17.48-15.36-17.48a16.17,16.17,0,0,0-9.06,2.5,8,8,0,0,1,4.7,6.58s0,.09,0,.12c.1.86.17,1.87.21,3.09,0,.8.05,1.69.05,2.67v29.87a6.77,6.77,0,0,1-3.67,6h29Zm-34.8-26.42-.14-10.2a14.31,14.31,0,0,0-1.82-7.11c-2.74-4.69-7.66-6.73-13.43-6.73a15.7,15.7,0,0,0-9.31,2.55,6,6,0,0,1,3.95,3.25s0,0,0,0a5.23,5.23,0,0,1,.84,2.39c0,.21.09.4.1.58a1.8,1.8,0,0,1,.05.37.3.3,0,0,1,0,.12,2.62,2.62,0,0,1,0,.37,3,3,0,0,1,0,.35c.1,1.29.17,2.92.17,5V159.9a6.77,6.77,0,0,1-3.67,6h26.89l0,0a6.76,6.76,0,0,1-3.72-6V139.1Z"/><path class="cls-3" d="M305.38,127.32l0,0a30.47,30.47,0,0,0-.21-3.09A15.16,15.16,0,0,1,305.38,127.32Z"/><path class="cls-3" d="M362.47,158V126.14a10,10,0,0,0-10-10H336.84l2.05.63a5.84,5.84,0,0,1,4.13,5.58v35.72a8.27,8.27,0,0,1-5.69,7.85l-.07,0h31.08l-.13,0A8.31,8.31,0,0,1,362.47,158Z"/><circle class="cls-3" cx="352.59" cy="99.16" r="9.72"/><path class="cls-3" d="M440.78,164.71a4.8,4.8,0,0,1-2.1-2.06L424,134.58a7.22,7.22,0,0,0-11-2.22l-6.76,5.73.84,1.66.16.31,9.4,19.3a4.78,4.78,0,0,1-2.55,6.54h29.09Zm-39.18-4.13V96.11a8.66,8.66,0,0,0-8.66-8.66H376l.88.27a7.46,7.46,0,0,1,5.28,7.14v65.53a5,5,0,0,1-3.46,4.77l-2.29.75h30l-1.62-.64A5.05,5.05,0,0,1,401.6,160.58Z"/><path class="cls-3" d="M418.11,126.67c.63,0,2.14-1.55,2.57-2a7.19,7.19,0,0,0,1.68-2.53c1.62-4.4-1.74-9.17,1.61-13.26a6.72,6.72,0,0,1,5.67-2.46c6.54.56,6.35,7.9,3.82,12.12a16.8,16.8,0,0,1-14.37,8.15C418.76,126.71,418.44,126.7,418.11,126.67Z"/><path d="M74.5,160.12c-2.78,1.07-5.54,2.2-8.35,3.21-10.82,3.86-20.84,2.06-29.72-4.61-5-3.73-9.29-8.22-14.7-13.09l13.92-11.55c4.38-.86,6.63,1.42,8,4.93,1.12,2.62.61,5.67,2.63,8.75,5.16,1.9,10.29,6.67,16.94,1.92,2.36-1.7,5.07-3,6.58-5.65,2.3-4,2.38-9.35,7.74-11.48,4.16-1.11,7,.32,8.6,4.08,1.22,6.4-3.06,11.33-5,16.88C81,157.56,79.63,160.56,74.5,160.12Z"/><path class="cls-4" d="M29.46,99.57C28.76,94.5,33.08,91,34,86.46q.85-5.4,6.54-6.26c4.22-1.55,8.07-4,12.67-4.63C64,74.24,73.7,76,81.36,84c2.81,2.94,5.67,5.82,8.5,8.73C87,97,83.32,99.05,78,97.14c-1-.42-2.1-.83-3.16-1.2a19.18,19.18,0,0,1-3-1.2c-6.4-4.25-12.94-7.78-21-3.7a39.05,39.05,0,0,0-5.37,4.9c-2.24,2.7-3.25,6.49-7.4,7.48C34.17,104.21,31.74,102,29.46,99.57Z"/><path class="cls-5" d="M42.15,93.42A12.45,12.45,0,0,1,48,88.06C59.31,88,63.79,97,70.25,103.34c2.6,2,4.17,4.5,3.86,7.82,1.84,3.91,6.5,5.88,7.74,10.19-1.51,3.76-5,4.25-8.53,4.58a12.89,12.89,0,0,1-7.63-3.35,58.44,58.44,0,0,1-9.83-9.93C49.73,107.25,42.05,102.84,42.15,93.42Z"/><path class="cls-6" d="M41.16,129.93c-1.67-4-6.27-6-7.31-10.43-1-4.63,2.18-6,5.84-6.94C46,112,48,117.74,52,120.46c2.39,1.39,3.51,4,5.51,5.7,4.69,4.32,10.75,7.72,10.83,15.16-.52,3.74-2.79,6-6.39,7.15a10.31,10.31,0,0,1-3.46.24,14.15,14.15,0,0,1-4.88-1.51c-3.51-1.77-5.87-4.71-8.15-7.73C43.75,136.41,40.35,134.07,41.16,129.93Z"/><path class="cls-7" d="M26.78,81.46l-4.1,3.34c-2.38-7.3-4.55-14-7.21-22.15,8.43,2.79,15.86,3.4,22.25,7.3.15.09.12.67,0,.93s-.55.49-.83.72C33.45,74.85,33.77,81.53,26.78,81.46Z"/><path class="cls-8" d="M74.12,111.15a17.34,17.34,0,0,1-6.38-5.78C66.32,97.62,71.62,94.87,78,92.91l3.5,1.94,8.38-2.11,2.61,3.09C86.25,101,80.18,106.08,74.12,111.15Z"/><path class="cls-9" d="M40.55,114.89c-2.41,1.39-5.49,1.84-7,4.52-5.4-5.85-5.24-12.75-4.12-19.83a12.39,12.39,0,0,1,8.44,2.17C44.14,105.15,43.93,109.73,40.55,114.89Z"/><path d="M74.5,160.12l6.65-6.62c4.26,4.42,8.52,8.84,13,13.45C84.86,170.6,84.23,170.36,74.5,160.12Z"/><path d="M73.07,123.44a14.8,14.8,0,0,1,8.79-2.1c3.58,4.55,5.43,9.54,4.31,15.29a12.9,12.9,0,0,0-8.58-2.12C71.88,132.36,69.61,129,73.07,123.44Z"/><path d="M26.78,81.46c3.69-3,5.42-7.78,10.08-9.86C34.29,76,38,77.85,40.58,80.21A20.4,20.4,0,0,1,34,86.47C31.94,84.38,30,82.05,26.78,81.46Z"/><path d="M40.94,129.69c2.83,1.33,4.59,3.73,6.55,5.94-.32,4-2,6.56-6.82,5.43.15-3.51-1.88-5.6-5-7A9.94,9.94,0,0,1,40.94,129.69Z"/><path d="M73.21,123,77.72,134c-.49,4.37-1.2,8.68-4.14,12.3-5.31.87-6.32-2.65-7.18-6.33L55,127.62c.25-8.43,4.66-11.33,13.09-8.89Z"/><path d="M40.67,141.05l6.82-5.43,9.36,7.55a7.2,7.2,0,0,0,2.27,1.94l.16.15c2.7,2.29,7.79,2.48,7.35,7.54-11.9,6.18-19.51,4.44-29.8-6.81C36.69,143.36,39.9,143.05,40.67,141.05Z"/><path class="cls-10" d="M66.63,152.8c-2.62-2.37-5.88-4.16-7.35-7.54,3.68.18,5.72-1.78,7-4.79l7.18,6.33A14.11,14.11,0,0,1,66.63,152.8Z"/><path d="M78,92.9c-.87,6-6.95,8.22-10.25,12.46L48,88.05c10.2-7.33,19.16-3.52,27.83,2.81a2.07,2.07,0,0,0,1.71,1.6Z"/><path d="M40.55,114.89c-1.95-4.19-2.35-8.66-2.66-13.14.86-3,1.79-6,4.26-8.33l17,17.45c2.53,8.2-2.72,10.74-9.7,12C45.53,121.16,43.64,117.43,40.55,114.89Z"/><path class="cls-8" d="M77.53,92.47a1.63,1.63,0,0,1-1.71-1.6Z"/><path d="M49.43,122.89c.56-3.46,3.34-5.38,6-7.2,1.87-1.29,3.51-2.49,3.72-4.81l8.82,8.33c-6.37.3-8.21,6.61-13.09,8.89C53.05,126.35,51.24,124.62,49.43,122.89Z"/><path class="cls-10" d="M59.12,145.11a2.32,2.32,0,0,1-2.27-1.94A2.61,2.61,0,0,1,59.12,145.11Z"/><path class="cls-2" d="M48.17,88.83S61.25,75.51,76.9,93.12c0,0,2.47,2.5-9.52,12.54Z"/><path class="cls-2" d="M42.51,94,59,111c-.85,5-9,6.11-9.43,11.68,0,0-11.91-4.84-10.92-17C38.66,105.66,35.75,100.21,42.51,94Z"/><path class="cls-2" d="M67.59,119.1c8.93,5.7,13.52,17,5.34,26.84l-18.06-18.2S63.43,116.45,67.59,119.1Z"/><path class="cls-2" d="M47.69,135.07l18.61,16.7s-6.88,6.12-18.14,2c0,0-8.3-4.14-10.83-8.63C37.34,145.15,36.17,143.88,47.69,135.07Z"/></g></g></svg>