<?xml version="1.0" encoding="utf-8"?>
<!-- Generator: Adobe Illustrator 23.0.0, SVG Export Plug-In . SVG Version: 6.00 Build 0)  -->
<svg version="1.1" id="Layer_1" xmlns="http://www.w3.org/2000/svg" xmlns:xlink="http://www.w3.org/1999/xlink" x="0px" y="0px"
	 viewBox="0 0 612 792" style="enable-background:new 0 0 612 792;" xml:space="preserve">
<style type="text/css">
	.st0{fill:#444444;}
	.st1{fill:#06D6A0;}
	.st2{fill:#232322;}
	.st3{fill:#303030;}
	.st4{fill:#121212;}
	.st5{fill:#232323;}
	.st6{fill:#151515;}
	.st7{fill:#242424;}
	.st8{fill:#2A2A2A;}
	.st9{fill:#050505;}
	.st10{fill:#F6DE04;}
</style>
<rect x="81.7" y="75.1" class="st0" width="418.4" height="228.3"/>
<rect x="61.2" y="127.4" class="st1" width="465.6" height="124.1"/>
<g>
	<path class="st2" d="M210.9,235.6c-1.8,0.1-3-1.1-3-5.4v-21.2c0-15.2-5.6-19.8-22-19.8c-1.2,0-2.4,0-3.4,0.1c4.2,0,6,4.8,6,18.1
		v3.1l0.4,22.9c1.3,5.1,6,7.7,14.4,7.7c9,0,12.9-3.6,13.4-16.1C216.7,224.9,215,235.5,210.9,235.6z M182.4,189.2
		C182.3,189.2,182.5,189.7,182.4,189.2L182.4,189.2z"/>
	<path class="st2" d="M183.1,189.2c0,0-17.4-0.2-18.8,9.7s6,12.3,10,11.7c4-0.6,6.4-4.1,5.6-8.1
		C179.1,198.6,176.8,191.2,183.1,189.2z"/>
	<path class="st2" d="M188.4,215.4c0,0-19.8-0.9-24.2,4.9s-3.5,18.3,7,20.2c10.5,1.9,9.8-9.3,9.6-13.6
		C180.6,222.8,180.3,216.7,188.4,215.4z"/>
</g>
<g>
	<path class="st2" d="M283.5,213.9c0.6-0.1,1.5-2.1,1.8-2.7c0.5-0.9,0.8-1.9,0.8-2.9c0.2-4.7-4.5-8.2-2.6-13.1
		c0.8-2,2.5-3.6,4.6-4.1c6.4-1.5,8.5,5.5,7.4,10.3c-1.3,5.6-5.6,10.5-11.1,12.2C284.1,213.7,283.8,213.8,283.5,213.9z"/>
	<path class="st2" d="M281.4,231.8c-2.8-10.3-7.1-26-9.5-34.5c-1-3.6-4.2-6-7.9-6h-15.9c2.4,1.2,4.2,3.4,4.9,6.1l3.1,11.6l9.1,32.1
		H276h7.9h6.9C286.2,239.9,282.6,236.4,281.4,231.8z"/>
	<path class="st2" d="M247.8,231.7l-1.5-5.7v0l-7.7-28.7c-1-3.6-4.2-6.1-7.9-6.1H212l0.8,0.3c2.5,1,4.4,3.1,5.3,5.6l14.2,43.9h10.5
		h3.5h4.1h7.1l-0.1,0C252.7,239.9,249.1,236.3,247.8,231.7z"/>
</g>
<g>
	<path class="st2" d="M325.8,234.9v-37.2c0-3.6-2.9-6.5-6.5-6.5h-18.8l1,0.3c2.8,0.9,4.7,3.5,4.7,6.5v36.1c0,2.9-1.9,5.6-4.7,6.5
		l-1,0.3h29l0,0C327.3,239.9,325.8,237.5,325.8,234.9z M390.7,240.7c-2.8-0.9-4.7-3.5-4.7-6.4v-26.6c0-12.7-6.3-17.5-15.4-17.5
		c-3.8,0-6.8,1-9.1,2.5c1.6,0.6,4.5,2.9,4.7,6.6c0,0.1,0,0.1,0,0.1c0.1,0.9,0.2,1.9,0.2,3.1c0,0.8,0,1.7,0,2.7V235
		c0,2.5-1.4,4.9-3.7,6l0,0h29L390.7,240.7z M355.9,214.3l-0.1-10.2c0-2.5-0.6-5-1.8-7.1c-2.7-4.7-7.7-6.7-13.4-6.7
		c-4.1,0-7.1,1-9.3,2.6c2,0.5,3.2,1.8,4,3.3c0,0,0,0,0,0c0.4,0.5,0.6,1.2,0.8,2.4c0,0.2,0.1,0.4,0.1,0.6c0,0.1,0,0.3,0,0.4
		c0,0.1,0,0.1,0,0.1c0,0.1,0,0.3,0,0.4c0,0.2,0,0.4,0,0.4c0.1,1.3,0.2,2.9,0.2,5v29.9c0,2.5-1.4,4.9-3.7,6l0,0h26.9l0,0
		c-2.3-1.1-3.7-3.5-3.7-6L355.9,214.3L355.9,214.3z"/>
	<path class="st2" d="M366.6,202.5L366.6,202.5c0-1.2-0.1-2.2-0.2-3.1C366.6,201.1,366.6,202.5,366.6,202.5z"/>
</g>
<g>
	<path class="st2" d="M423.7,233.1v-31.9c0-5.5-4.5-10-10-10H398l2,0.6c2.5,0.8,4.1,3,4.1,5.6v35.7c0,3.6-2.3,6.7-5.7,7.9l-0.1,0
		h31.1l-0.1,0C426,239.9,423.7,236.7,423.7,233.1z"/>
	<circle class="st2" cx="413.8" cy="174.3" r="9.7"/>
</g>
<g>
	<path class="st2" d="M502,239.9c-0.9-0.4-1.6-1.2-2.1-2.1l-14.7-28.1c-2.1-4.1-7.5-5.1-11-2.2l-6.8,5.7l0.8,1.7l0.2,0.3l9.4,19.3
		c1.2,2.5,0,5.5-2.5,6.5l0,0h29.1L502,239.9z M462.8,235.7v-64.5c0-4.8-3.9-8.7-8.7-8.7h-17l0.9,0.3c3.1,1,5.3,3.9,5.3,7.1v65.5
		c0,2.2-1.4,4.1-3.5,4.8l-2.3,0.8h30l-1.6-0.6C464,239.6,462.8,237.8,462.8,235.7z"/>
	<path class="st2" d="M479.3,201.8c0.6,0.1,2.1-1.6,2.6-2c0.7-0.7,1.3-1.6,1.7-2.5c1.6-4.4-1.7-9.2,1.6-13.3
		c1.4-1.7,3.5-2.6,5.7-2.5c6.5,0.6,6.4,7.9,3.8,12.1c-3,5-8.6,8.2-14.4,8.1C480,201.9,479.6,201.9,479.3,201.8z"/>
</g>
<g>
	<g>
		<path d="M135.7,235.3c-2.8,1.1-5.5,2.2-8.3,3.2c-10.8,3.9-20.8,2.1-29.7-4.6c-5-3.7-9.3-8.2-14.7-13.1c5-4.1,9.5-7.9,13.9-11.6
			c4.4-0.9,6.6,1.4,8,4.9c1.1,2.6,0.6,5.7,2.6,8.8c5.2,1.9,10.3,6.7,16.9,1.9c2.4-1.7,5.1-3,6.6-5.6c2.3-4,2.4-9.4,7.7-11.5
			c4.2-1.1,7,0.3,8.6,4.1c1.2,6.4-3.1,11.3-5,16.9C142.2,232.7,140.8,235.7,135.7,235.3z"/>
		<path class="st3" d="M90.7,174.7c-0.7-5.1,3.6-8.6,4.6-13.1c0.6-3.6,2.8-5.7,6.5-6.3c4.2-1.6,8.1-4.1,12.7-4.6
			c10.7-1.3,20.4,0.4,28.1,8.4c2.8,2.9,5.7,5.8,8.5,8.7c-2.8,4.2-6.5,6.3-11.9,4.4c-1-0.4-2.1-0.8-3.2-1.2c-1-0.3-2.1-0.7-3-1.2
			c-6.4-4.3-12.9-7.8-21-3.7c-1.9,1.6-3.8,3-5.4,4.9c-2.2,2.7-3.3,6.5-7.4,7.5C95.4,179.4,92.9,177.2,90.7,174.7z"/>
		<path class="st4" d="M103.3,168.6c1.4-2.3,3.2-4.2,5.8-5.4c11.3-0.1,15.8,8.9,22.3,15.3c2.6,2,4.2,4.5,3.9,7.8
			c1.8,3.9,6.5,5.9,7.7,10.2c-1.5,3.8-5,4.3-8.5,4.6c-3-0.2-5.4-1.5-7.6-3.4c-3.6-3-7.1-6.1-9.8-9.9
			C110.9,182.4,103.2,178,103.3,168.6z"/>
		<path class="st5" d="M102.3,205.1c-1.7-4-6.3-6-7.3-10.4c-1-4.6,2.2-6,5.8-6.9c6.3-0.6,8.3,5.2,12.3,7.9c2.4,1.4,3.5,3.9,5.5,5.7
			c4.7,4.3,10.8,7.7,10.8,15.2c-0.5,3.7-2.8,6-6.4,7.1c-1.1,0.3-2.3,0.3-3.5,0.2c-1.7-0.2-3.3-0.7-4.9-1.5c-3.5-1.8-5.9-4.7-8.2-7.7
			C104.9,211.6,101.5,209.2,102.3,205.1z"/>
		<path class="st6" d="M88,156.6c-1.1,0.9-2.3,1.8-4.1,3.3c-2.4-7.3-4.6-14-7.2-22.1c8.4,2.8,15.9,3.4,22.3,7.3
			c0.2,0.1,0.1,0.7,0,0.9c-0.2,0.3-0.6,0.5-0.8,0.7C94.6,150,95,156.7,88,156.6z"/>
		<path class="st7" d="M135.3,186.3c-2.7-1.4-4.7-3.4-6.4-5.8c-1.4-7.8,3.9-10.5,10.3-12.5c1.2,0.7,2.4,1.4,3.5,1.9
			c2.9-0.7,5.7-1.4,8.4-2.1c0.6,0.8,1.3,1.5,2.6,3.1C147.4,176.2,141.4,181.2,135.3,186.3z"/>
		<path class="st8" d="M101.7,190c-2.4,1.4-5.5,1.8-7,4.5c-5.4-5.9-5.2-12.8-4.1-19.8c3.1-0.3,5.9,0.5,8.4,2.2
			C105.3,180.3,105.1,184.9,101.7,190z"/>
		<path d="M135.7,235.3c2.2-2.2,4.4-4.4,6.6-6.6c4.3,4.4,8.5,8.8,13,13.4C146.1,245.8,145.4,245.5,135.7,235.3z"/>
		<path d="M134.3,198.6c2.7-1.6,5.6-2.4,8.8-2.1c3.6,4.6,5.4,9.5,4.3,15.3c-2.6-1.6-5.4-2.5-8.6-2.1
			C133.1,207.5,130.8,204.1,134.3,198.6z"/>
		<path d="M88,156.6c3.7-3,5.4-7.8,10.1-9.9c-2.6,4.4,1.2,6.3,3.7,8.6c-1.7,2.6-3.9,4.6-6.5,6.3C93.1,159.5,91.2,157.2,88,156.6z"/>
		<path d="M102.1,204.8c2.8,1.3,4.6,3.7,6.6,5.9c-0.3,4-2,6.6-6.8,5.4c0.2-3.5-1.9-5.6-5-7C98.1,207.2,99.8,205.7,102.1,204.8z"/>
		<path d="M134.4,198.1c1.5,3.7,3,7.4,4.5,11.1c-0.5,4.4-1.2,8.7-4.1,12.3c-5.3,0.9-6.3-2.6-7.2-6.3c-3.8-4.1-7.6-8.3-11.4-12.4
			c0.3-8.4,4.7-11.3,13.1-8.9C131,195.3,132.7,196.7,134.4,198.1z"/>
		<path d="M101.9,216.2c2.3-1.8,4.6-3.6,6.8-5.4c3.1,2.5,6.2,5,9.4,7.6c0.6,0.8,1.4,1.4,2.3,1.9l0.2,0.1c2.7,2.3,7.8,2.5,7.3,7.5
			c-11.9,6.2-19.5,4.4-29.8-6.8C97.9,218.5,101.1,218.2,101.9,216.2z"/>
		<path class="st9" d="M127.8,227.9c-2.6-2.4-5.9-4.2-7.3-7.5c3.7,0.2,5.7-1.8,7-4.8c2.4,2.1,4.8,4.2,7.2,6.3
			C133,224.6,130.9,226.8,127.8,227.9z"/>
		<path d="M139.2,168.1c-0.9,6.1-6.9,8.2-10.3,12.5c-6.6-5.8-13.2-11.5-19.8-17.3c10.2-7.3,19.2-3.5,27.8,2.8
			c0.2,0.9,0.8,1.4,1.7,1.6L139.2,168.1z"/>
		<path d="M101.7,190c-1.9-4.2-2.3-8.7-2.7-13.1c0.9-3,1.8-6,4.3-8.3c5.7,5.8,11.3,11.6,17,17.4c2.5,8.2-2.7,10.7-9.7,12
			C106.7,196.3,104.8,192.6,101.7,190z"/>
		<path class="st7" d="M138.7,167.6c-1-0.1-1.6-0.6-1.7-1.6C137.6,166.6,138.1,167.1,138.7,167.6z"/>
		<path d="M110.6,198c0.6-3.5,3.3-5.4,6-7.2c1.9-1.3,3.5-2.5,3.7-4.8c2.9,2.8,5.9,5.6,8.8,8.3c-6.4,0.3-8.2,6.6-13.1,8.9
			C114.2,201.5,112.4,199.8,110.6,198z"/>
		<path class="st9" d="M120.3,220.3c-1.3-0.1-2-0.8-2.3-1.9C119.2,218.5,120,219.1,120.3,220.3z"/>
	</g>
	<path class="st1" d="M109.4,164c0,0,13.1-13.3,28.7,4.3c0,0,2.5,2.5-9.5,12.5L109.4,164z"/>
	<path class="st10" d="M97.6,186.2"/>
	<path class="st1" d="M103.7,169.2l16.5,17c-0.8,5.1-9,6.1-9.4,11.7c0,0-11.9-4.8-10.9-17C99.8,180.8,96.9,175.4,103.7,169.2z"/>
	<path class="st1" d="M128.8,194.3c8.9,5.7,13.5,16.9,5.3,26.8l-18.1-18.2C116.1,202.9,124.6,191.6,128.8,194.3z"/>
	<path class="st1" d="M108.9,210.2l18.6,16.7c0,0-6.9,6.1-18.1,2c0,0-8.3-4.1-10.8-8.6C98.5,220.3,97.4,219,108.9,210.2z"/>
</g>
</svg>
